<svg width="12" height="12" viewBox="0 0 12 12" fill="none" xmlns="http://www.w3.org/2000/svg">
<path d="M10.5 3H8.915L8 2H5V3H7.56L8.475 4H10.5V10H2.5V5.5H1.5V10C1.5 10.55 1.95 11 2.5 11H10.5C11.05 11 11.5 10.55 11.5 10V4C11.5 3.45 11.05 3 10.5 3ZM4 7C4 8.38 5.12 9.5 6.5 9.5C7.88 9.5 9 8.38 9 7C9 5.62 7.88 4.5 6.5 4.5C5.12 4.5 4 5.62 4 7ZM6.5 5.5C7.325 5.5 8 6.175 8 7C8 7.825 7.325 8.5 6.5 8.5C5.675 8.5 5 7.825 5 7C5 6.175 5.675 5.5 6.5 5.5ZM2.5 3H4V2H2.5V0.5H1.5V2H0V3H1.5V4.5H2.5V3Z" fill="#07A58E"/>
</svg>
